<?xml version="1.0" standalone="no"?><!DOCTYPE svg PUBLIC "-//W3C//DTD SVG 1.1//EN" "http://www.w3.org/Graphics/SVG/1.1/DTD/svg11.dtd"><svg t="1781663592509" class="icon" viewBox="0 0 1024 1024" version="1.1" xmlns="http://www.w3.org/2000/svg" p-id="8859" xmlns:xlink="http://www.w3.org/1999/xlink" width="256" height="256"><path d="M512 42.666667c259.2 0 469.333333 210.133333 469.333333 469.333333s-210.133333 469.333333-469.333333 469.333333S42.666667 771.2 42.666667 512 252.8 42.666667 512 42.666667z m0 42.666666C276.352 85.333333 85.333333 276.352 85.333333 512s191.018667 426.666667 426.666667 426.666667 426.666667-191.018667 426.666667-426.666667S747.648 85.333333 512 85.333333z m0 170.666667a21.333333 21.333333 0 0 1 20.992 17.493333l0.341333 3.84v213.333334h213.333334a21.333333 21.333333 0 0 1 3.84 42.325333l-3.84 0.341333h-213.333334v213.333334a21.333333 21.333333 0 0 1-42.325333 3.84l-0.341333-3.84v-213.333334h-213.333334a21.333333 21.333333 0 0 1-3.84-42.325333l3.84-0.341333h213.333334v-213.333334A21.333333 21.333333 0 0 1 512 256z" fill="#2c2c2c" p-id="8860"></path></svg>