<?xml version="1.0" standalone="no"?><!DOCTYPE svg PUBLIC "-//W3C//DTD SVG 1.1//EN" "http://www.w3.org/Graphics/SVG/1.1/DTD/svg11.dtd"><svg t="1781577367029" class="icon" viewBox="0 0 1024 1024" version="1.1" xmlns="http://www.w3.org/2000/svg" p-id="4849" xmlns:xlink="http://www.w3.org/1999/xlink" width="256" height="256"><path d="M874.62 169.29c0-0.63-0.03-1.26-0.1-1.88-0.03-0.31-0.09-0.61-0.13-0.91-0.05-0.34-0.09-0.69-0.16-1.03-0.07-0.34-0.16-0.67-0.25-1.01-0.07-0.3-0.14-0.59-0.23-0.89-0.1-0.33-0.22-0.64-0.34-0.96-0.11-0.3-0.2-0.59-0.32-0.89-0.12-0.3-0.27-0.58-0.41-0.87-0.14-0.3-0.28-0.61-0.43-0.9-0.15-0.28-0.32-0.54-0.48-0.81-0.17-0.29-0.34-0.59-0.53-0.87-0.2-0.29-0.42-0.57-0.63-0.85-0.18-0.24-0.35-0.49-0.54-0.72-0.4-0.49-0.83-0.96-1.28-1.41l-0.05-0.05c-0.01-0.01-0.03-0.02-0.04-0.04-0.45-0.45-0.93-0.88-1.42-1.29-0.24-0.19-0.48-0.36-0.73-0.54-0.28-0.21-0.55-0.43-0.84-0.62-0.29-0.19-0.59-0.36-0.88-0.54-0.27-0.16-0.52-0.32-0.8-0.47-0.3-0.16-0.61-0.3-0.91-0.44-0.29-0.14-0.57-0.28-0.86-0.4-0.3-0.12-0.6-0.22-0.9-0.33-0.32-0.11-0.63-0.23-0.95-0.33-0.3-0.09-0.61-0.16-0.91-0.23-0.33-0.08-0.65-0.18-0.99-0.24-0.35-0.07-0.7-0.11-1.06-0.16-0.29-0.04-0.58-0.1-0.88-0.13-0.66-0.06-1.31-0.1-1.97-0.1H683.31c-11.05 0-20 8.95-20 20s8.95 20 20 20h123.03L583.51 412.2c-7.81 7.81-7.81 20.47 0 28.28 3.91 3.91 9.02 5.86 14.14 5.86s10.24-1.95 14.14-5.86l222.82-222.82v123.03c0 11.05 8.95 20 20 20s20-8.95 20-20V169.38c0.01-0.03 0.01-0.06 0.01-0.09zM412.2 583.51L189.38 806.34V683.31c0-11.05-8.95-20-20-20s-20 8.95-20 20v171.31c0 0.66 0.03 1.32 0.1 1.97 0.03 0.3 0.09 0.59 0.13 0.88 0.05 0.35 0.09 0.7 0.16 1.05 0.07 0.34 0.16 0.66 0.24 0.99 0.08 0.3 0.14 0.61 0.23 0.91 0.1 0.32 0.22 0.63 0.33 0.95 0.11 0.3 0.21 0.6 0.33 0.9 0.12 0.29 0.27 0.58 0.4 0.86 0.14 0.31 0.28 0.61 0.44 0.91 0.15 0.27 0.31 0.53 0.47 0.8 0.18 0.29 0.34 0.59 0.53 0.88 0.2 0.29 0.41 0.57 0.62 0.85 0.18 0.24 0.35 0.49 0.54 0.72 0.41 0.49 0.84 0.97 1.29 1.42 0.01 0.01 0.02 0.03 0.04 0.04l0.05 0.05c0.45 0.45 0.92 0.87 1.41 1.28 0.24 0.2 0.49 0.37 0.73 0.55 0.28 0.21 0.55 0.42 0.84 0.62 0.29 0.19 0.59 0.36 0.89 0.54 0.26 0.16 0.52 0.32 0.79 0.47 0.3 0.16 0.61 0.3 0.92 0.44 0.28 0.13 0.56 0.27 0.85 0.39 0.3 0.12 0.61 0.22 0.91 0.33 0.31 0.11 0.62 0.23 0.94 0.33 0.3 0.09 0.61 0.16 0.92 0.24 0.33 0.08 0.65 0.17 0.98 0.24 0.35 0.07 0.71 0.11 1.06 0.16 0.29 0.04 0.58 0.1 0.87 0.13 0.66 0.06 1.31 0.1 1.97 0.1h171.31c11.05 0 20-8.95 20-20s-8.95-20-20-20H217.66L440.49 611.8c7.81-7.81 7.81-20.47 0-28.29s-20.48-7.81-28.29 0zM854.62 663.31c-11.05 0-20 8.95-20 20v123.03L611.8 583.51c-7.81-7.81-20.47-7.81-28.29 0-7.81 7.81-7.81 20.47 0 28.29l222.82 222.82H683.31c-11.05 0-20 8.95-20 20s8.95 20 20 20h171.31c0.66 0 1.32-0.03 1.97-0.1 0.3-0.03 0.58-0.08 0.87-0.13 0.35-0.05 0.71-0.09 1.06-0.16 0.33-0.07 0.66-0.16 0.98-0.24 0.31-0.08 0.61-0.14 0.92-0.24 0.32-0.1 0.63-0.22 0.94-0.33 0.3-0.11 0.61-0.21 0.91-0.33 0.29-0.12 0.57-0.26 0.85-0.39 0.31-0.15 0.62-0.28 0.93-0.45 0.27-0.14 0.52-0.3 0.78-0.46 0.3-0.18 0.61-0.35 0.9-0.55 0.28-0.19 0.54-0.39 0.81-0.59 0.25-0.19 0.52-0.37 0.76-0.57 0.46-0.38 0.9-0.78 1.32-1.2 0.05-0.04 0.09-0.08 0.14-0.13 0.04-0.04 0.08-0.09 0.12-0.14 0.42-0.42 0.82-0.86 1.2-1.33 0.2-0.24 0.37-0.5 0.56-0.75 0.2-0.27 0.42-0.54 0.6-0.82 0.19-0.29 0.36-0.59 0.54-0.89 0.16-0.26 0.32-0.52 0.47-0.79 0.16-0.3 0.3-0.61 0.44-0.91 0.14-0.29 0.28-0.57 0.4-0.86 0.12-0.29 0.22-0.59 0.33-0.89 0.11-0.32 0.24-0.63 0.33-0.96 0.09-0.3 0.15-0.6 0.23-0.89 0.08-0.33 0.18-0.66 0.25-1.01 0.07-0.34 0.11-0.68 0.16-1.03 0.04-0.3 0.1-0.6 0.13-0.91 0.06-0.63 0.09-1.25 0.1-1.88V683.31c0-11.04-8.95-20-20-20zM217.66 189.38h123.03c11.05 0 20-8.95 20-20s-8.95-20-20-20H169.38c-0.66 0-1.32 0.03-1.97 0.1-0.3 0.03-0.59 0.08-0.88 0.13-0.35 0.05-0.7 0.09-1.05 0.16-0.34 0.07-0.66 0.16-0.99 0.24-0.3 0.08-0.6 0.14-0.9 0.23-0.33 0.1-0.64 0.22-0.96 0.33-0.3 0.11-0.6 0.2-0.89 0.33-0.3 0.12-0.58 0.27-0.87 0.41-0.3 0.14-0.6 0.28-0.9 0.43-0.28 0.15-0.54 0.32-0.81 0.48-0.29 0.17-0.58 0.34-0.86 0.53-0.3 0.2-0.58 0.43-0.87 0.64-0.23 0.17-0.47 0.34-0.7 0.52-1.02 0.84-1.96 1.77-2.79 2.79-0.19 0.23-0.35 0.46-0.52 0.69-0.22 0.29-0.44 0.57-0.64 0.88-0.19 0.28-0.35 0.57-0.52 0.86-0.16 0.27-0.33 0.54-0.48 0.82-0.16 0.3-0.29 0.6-0.43 0.9-0.14 0.29-0.28 0.58-0.41 0.87-0.12 0.29-0.22 0.59-0.33 0.89-0.11 0.32-0.24 0.63-0.33 0.96-0.09 0.3-0.16 0.6-0.23 0.9-0.08 0.33-0.18 0.66-0.24 1-0.07 0.35-0.11 0.7-0.16 1.05-0.04 0.3-0.1 0.59-0.13 0.88-0.06 0.66-0.1 1.31-0.1 1.97v171.31c0 11.05 8.95 20 20 20s20-8.95 20-20V217.66L412.2 440.49c3.91 3.91 9.02 5.86 14.14 5.86s10.24-1.95 14.14-5.86c7.81-7.81 7.81-20.47 0-28.28L217.66 189.38z" fill="#333333" p-id="4850"></path></svg>