<?xml version="1.0" standalone="no"?><!DOCTYPE svg PUBLIC "-//W3C//DTD SVG 1.1//EN" "http://www.w3.org/Graphics/SVG/1.1/DTD/svg11.dtd"><svg t="1781600732111" class="icon" viewBox="0 0 1024 1024" version="1.1" xmlns="http://www.w3.org/2000/svg" p-id="3486" xmlns:xlink="http://www.w3.org/1999/xlink" width="256" height="256"><path d="M909.492706 187.632941a60.235294 60.235294 0 0 1 60.054588 55.717647l0.180706 4.517647v518.02353a60.235294 60.235294 0 0 1-55.717647 60.054588l-4.517647 0.180706h-567.416471a60.235294 60.235294 0 0 1-43.489882-18.492235l-3.614118-4.156236-185.103059-231.424a90.352941 90.352941 0 0 1-5.360941-105.411764l3.493647-5.059765 186.368-249.73553a60.235294 60.235294 0 0 1 43.128471-24.033882l5.180235-0.180706h566.814118z m0 60.235294h-566.814118L156.310588 497.543529a30.117647 30.117647 0 0 0-1.686588 33.490824l2.288941 3.312941 185.103059 231.484235h567.416471v-518.023529z" fill="#d81e06" p-id="3487"></path><path d="M677.044706 370.567529l45.477647 45.417412-90.895059 90.834824 90.895059 90.955294-45.417412 45.357176L586.089412 552.357647l-90.774588 90.834824-45.477648-45.417412 90.895059-90.834824-90.895059-90.895059 45.477648-45.417411L586.209882 461.402353z" fill="#d81e06" p-id="3488"></path></svg>