<?xml version="1.0" standalone="no"?><!DOCTYPE svg PUBLIC "-//W3C//DTD SVG 1.1//EN" "http://www.w3.org/Graphics/SVG/1.1/DTD/svg11.dtd"><svg t="1781496019924" class="icon" viewBox="0 0 1024 1024" version="1.1" xmlns="http://www.w3.org/2000/svg" p-id="1674" xmlns:xlink="http://www.w3.org/1999/xlink" width="200" height="200"><path d="M575.8 896H160c-17.7 0-32-14.3-32-32V160c0-17.7 14.3-32 32-32h383.9v160c0 35.3 28.6 64 64 64h159.9v192c0 17.7 14.3 32 32 32s32-14.3 32-32V270.2c0-8.5-3.3-16.6-9.3-22.6L649.2 73.4c-6-6-14.2-9.4-22.7-9.4H128c-35.3 0-64 28.7-64 64v768c0 35.3 28.6 64 64 64h447.9c17.7 0 32-14.3 32-32-0.1-17.7-14.4-32-32.1-32z m64-608c-17.7 0-32-14.3-32-32V128l159.9 160H639.8z" p-id="1675" fill="#d81e06"></path><path d="M543.8 672H223c-17.7 0-32 14.3-32 32s14.3 32 32 32h320.9c17.7 0 32-14.3 32-32-0.1-17.7-14.4-32-32.1-32zM606.8 480H223c-17.7 0-32 14.3-32 32s14.3 32 32 32h383.9c17.7 0 32-14.3 32-32-0.1-17.7-14.4-32-32.1-32zM223 352h191.9c17.7 0 32-14.3 32-32s-14.3-32-32-32H223c-17.7 0-32 14.3-32 32s14.3 32 32 32zM890 634.3v35.2l-27.2 30h65.5v116.7h-122c-23.9 44.5-68 81.5-132.3 110.9-7.7-10.9-18-24-31-39.3 54.8-20.2 92-44.1 111.9-71.6h-33.6v13.7h-44.4v-92.4c-4.3 3-8.4 6-12.5 8.9-6.6-13.4-14.1-27-22.4-40.6 39.6-25.6 71.5-57.8 95.6-96.8l49.9 3.5c-4 7.5-8.4 14.7-13.1 21.7H890z m-169.1 65.2h88.8l25.9-29.1h-87.9c-8.2 10-17.2 19.7-26.8 29.1z m60.4 36.1h-60.1V780h51.1c3.9-12.6 6.9-27.4 9-44.4z m20.5 91h42.5v33.6c0 13.6 6.1 20.5 18.2 20.5h25.9c15.6 0 23.9-4.9 24.9-14.7 0.9-5.8 1.9-20.2 3.2-43.5 16 5.5 30.5 10.2 43.5 14.1-3 25.4-5.9 43-8.6 53.1-4.5 20-24 30-58.5 30H845c-28.8 0-43.1-15.6-43.1-46.7v-46.4z m82.1-46.6v-44.4h-60.7c-1.9 16.8-4.4 31.6-7.4 44.4h68.1z" p-id="1676" fill="#d81e06"></path></svg>