<?xml version="1.0" standalone="no"?><!DOCTYPE svg PUBLIC "-//W3C//DTD SVG 1.1//EN" "http://www.w3.org/Graphics/SVG/1.1/DTD/svg11.dtd"><svg t="1781508762326" class="icon" viewBox="0 0 1024 1024" version="1.1" xmlns="http://www.w3.org/2000/svg" p-id="4113" xmlns:xlink="http://www.w3.org/1999/xlink" width="256" height="256"><path d="M504.064 697.6c-100.352 0-182.016-81.664-182.016-182.016 0-100.352 81.664-182.016 182.016-182.016 100.352 0 182.016 81.664 182.016 182.016 0 100.352-81.664 182.016-182.016 182.016z m0-302.592c-66.56 0-120.576 54.016-120.576 120.576s54.016 120.576 120.576 120.576 120.576-54.016 120.576-120.576-54.016-120.576-120.576-120.576z" fill="#040000" p-id="4114"></path><path d="M444.672 978.944c-43.776 0-81.92-29.184-93.184-71.68l-12.544-46.848c-2.304-8.704-7.936-16.128-15.872-20.48-7.936-4.352-17.152-5.632-25.856-3.072l-48.64 14.08c-41.984 12.288-87.04-5.632-109.568-43.264l-67.072-112.128c-22.528-37.888-16.64-86.272 14.592-117.504l32.256-32.512c12.8-13.056 13.056-34.048 0.256-47.104l-37.632-38.4c-29.696-30.208-36.096-77.312-15.36-114.432l63.744-114.176c22.016-39.68 67.84-58.368 111.36-45.568l46.336 13.568c8.96 2.56 18.432 1.536 26.624-3.328s13.568-12.544 15.616-21.504L340.48 125.44c9.728-43.776 47.872-75.008 92.672-75.52l129.024-1.792c44.544-0.768 83.456 28.928 94.72 71.936l14.336 54.784c2.56 9.472 8.448 16.896 17.152 21.248s18.432 4.864 27.392 1.536l38.912-14.848c44.032-16.896 93.184 0.256 117.504 40.448l64.512 108.288c22.528 37.888 16.64 86.272-14.592 117.504l-33.536 33.536c-6.4 6.4-9.728 14.848-9.728 23.808 0 8.96 3.584 17.408 9.984 23.808l37.12 36.608c30.72 30.464 37.376 77.824 16.384 115.456l-60.672 109.056c-23.552 42.24-75.264 60.416-120.064 42.496l-36.096-14.592c-9.216-3.84-19.456-3.072-28.16 1.536-8.96 4.608-14.848 12.8-16.896 22.528l-12.544 58.624c-9.216 43.776-47.104 74.752-91.648 75.264l-129.792 1.792h-1.792z m-137.728-204.8c16.128 0 32 4.096 46.592 12.288 22.528 12.544 38.4 33.28 45.056 58.112l12.544 46.848c4.096 15.616 18.176 26.368 34.304 25.856l129.792-1.792c15.872-0.256 29.184-11.264 32.512-26.624l12.544-58.624c5.888-27.392 23.296-50.688 48.128-64 24.832-13.312 54.016-14.848 80.128-4.352l36.096 14.592c16.384 6.4 35.072 0 43.52-15.36l60.672-109.056c7.68-13.568 5.12-30.976-5.888-41.984L845.568 573.44c-18.176-17.92-28.16-41.728-28.16-67.072 0-25.344 9.728-49.408 27.648-67.328l33.536-33.536c11.264-11.264 13.568-28.928 5.376-42.496L819.2 254.464c-8.704-14.592-26.624-20.736-42.496-14.592l-38.912 14.848c-25.088 9.728-53.504 8.192-77.312-4.096s-41.728-34.304-48.64-60.416l-14.336-54.784c-4.096-15.36-17.92-26.112-33.792-26.112h-0.512l-129.024 1.792c-16.384 0.256-30.208 11.52-33.536 27.392l-11.008 49.152c-5.632 25.6-21.76 47.872-44.544 61.184s-49.92 16.64-75.008 9.216l-46.336-13.568c-15.872-4.608-32.512 2.048-40.448 16.384l-63.744 114.176c-7.424 13.568-5.12 30.464 5.632 41.472l37.632 38.4c36.352 36.864 36.096 96.768-0.512 133.632l-32.256 32.512c-11.264 11.264-13.568 28.928-5.376 42.496L191.744 775.68c8.192 13.568 24.576 19.968 39.68 15.616l48.64-14.08c8.96-1.792 17.92-3.072 26.88-3.072z" fill="#040000" p-id="4115"></path></svg>