<?xml version="1.0" standalone="no"?><!DOCTYPE svg PUBLIC "-//W3C//DTD SVG 1.1//EN" "http://www.w3.org/Graphics/SVG/1.1/DTD/svg11.dtd"><svg t="1781508812540" class="icon" viewBox="0 0 1024 1024" version="1.1" xmlns="http://www.w3.org/2000/svg" p-id="5100" xmlns:xlink="http://www.w3.org/1999/xlink" width="256" height="256"><path d="M105.941333 444.032H601.6a8.277333 8.277333 0 0 0 8.277333-8.277333v-57.813334a8.277333 8.277333 0 0 0-8.277333-8.277333H105.941333a8.277333 8.277333 0 0 0-8.277333 8.256v57.834667c0 4.544 3.733333 8.277333 8.277333 8.277333z m-8.277333 210.666667c0 4.544 3.733333 8.256 8.277333 8.256H601.6a8.277333 8.277333 0 0 0 8.277333-8.256v-57.834667a8.277333 8.277333 0 0 0-8.277333-8.256H105.941333a8.277333 8.277333 0 0 0-8.277333 8.256v57.813333zM916.821333 152.810667H107.178667a8.277333 8.277333 0 0 0-8.256 8.256v57.813333c0 4.565333 3.712 8.277333 8.256 8.277333h809.642666a8.277333 8.277333 0 0 0 8.256-8.256V161.066667a8.277333 8.277333 0 0 0-8.256-8.256z m0 652.650666H107.178667a8.277333 8.277333 0 0 0-8.256 8.256v57.834667c0 4.544 3.712 8.256 8.256 8.256h809.642666a8.277333 8.277333 0 0 0 8.256-8.256v-57.813333a8.277333 8.277333 0 0 0-8.256-8.277334zM748.992 650.666667l161.408-127.146667a9.130667 9.130667 0 0 0 0-14.336l-161.408-127.232a9.173333 9.173333 0 0 0-14.869333 7.125333v254.357334a9.173333 9.173333 0 0 0 14.869333 7.232z" fill="#000000" p-id="5101"></path></svg>