<?xml version="1.0" standalone="no"?><!DOCTYPE svg PUBLIC "-//W3C//DTD SVG 1.1//EN" "http://www.w3.org/Graphics/SVG/1.1/DTD/svg11.dtd"><svg t="1781603027114" class="icon" viewBox="0 0 1024 1024" version="1.1" xmlns="http://www.w3.org/2000/svg" p-id="7827" xmlns:xlink="http://www.w3.org/1999/xlink" width="256" height="256"><path d="M773.029647 253.500235a26.352941 26.352941 0 0 1 3.312941 52.495059l-3.312941 0.210824H210.823529a26.352941 26.352941 0 0 1-3.312941-52.525177L210.823529 253.500235h562.206118zM808.146824 481.882353a26.352941 26.352941 0 0 1 3.312941 52.495059l-3.312941 0.210823H210.823529a26.352941 26.352941 0 0 1-3.312941-52.495059L210.823529 481.882353h597.323295zM773.029647 710.264471a26.352941 26.352941 0 0 1 3.312941 52.525176l-3.312941 0.180706H210.823529a26.352941 26.352941 0 0 1-3.312941-52.495059l3.312941-0.210823h562.206118z" fill="#2c2c2c" p-id="7828"></path><path d="M690.145882 390.204235a26.352941 26.352941 0 0 1 34.575059-2.349176l2.710588 2.349176 99.388236 99.388236c9.396706 9.426824 10.179765 24.244706 2.319059 34.575058l-2.349177 2.710589-99.388235 99.388235a26.352941 26.352941 0 0 1-39.604706-34.575059l2.349176-2.710588 80.745412-80.745412-80.745412-80.745412a26.352941 26.352941 0 0 1-2.349176-34.575058l2.349176-2.710589z" fill="#2c2c2c" p-id="7829"></path></svg>