<?xml version="1.0" standalone="no"?><!DOCTYPE svg PUBLIC "-//W3C//DTD SVG 1.1//EN" "http://www.w3.org/Graphics/SVG/1.1/DTD/svg11.dtd"><svg t="1781577337972" class="icon" viewBox="0 0 1024 1024" version="1.1" xmlns="http://www.w3.org/2000/svg" p-id="3862" xmlns:xlink="http://www.w3.org/1999/xlink" width="256" height="256"><path d="M356.48 625.322667a42.24 42.24 0 0 1 42.24 42.24V832h-84.48v-122.24H192v-84.48h164.48z m475.434667 0h8.576-172.970667a42.24 42.24 0 0 0-41.685333 35.413333l-0.512 6.826667V832h84.437333l-0.085333-122.24h122.24v-84.48zM709.76 192h-84.48v164.48a42.24 42.24 0 0 0 35.413333 41.685333l6.826667 0.512H832V314.24h-122.24V192z m-311.04 0h-84.48v122.24H192v84.48h164.48a42.24 42.24 0 0 0 41.685333-35.413333l0.512-6.826667V192z" p-id="3863"></path></svg>