<?xml version="1.0" standalone="no"?><!DOCTYPE svg PUBLIC "-//W3C//DTD SVG 1.1//EN" "http://www.w3.org/Graphics/SVG/1.1/DTD/svg11.dtd"><svg t="1781520765642" class="icon" viewBox="0 0 1024 1024" version="1.1" xmlns="http://www.w3.org/2000/svg" p-id="5280" xmlns:xlink="http://www.w3.org/1999/xlink" width="256" height="256"><path d="M546.4 960H200c-53 0-96.1-43.1-96.1-96.1V160.1c0-53 43.1-96.1 96.1-96.1h346.4c53 0 96.1 43.1 96.1 96.1v703.8c0 53-43.2 96.1-96.1 96.1zM200 108.8c-28.3 0-51.3 23-51.3 51.3v703.8c0 28.3 23 51.3 51.3 51.3h346.4c28.3 0 51.3-23 51.3-51.3V160.1c0-28.3-23-51.3-51.3-51.3H200z" fill="#363636" p-id="5281"></path><path d="M143.6 184.4h460.1v44.8H143.6zM534.7 590.4c-8.4 0-16.5-4.8-20.3-12.9L443.2 425 394 530.8c-3.7 7.9-11.6 12.9-20.3 12.9-8.7 0-16.6-5.1-20.3-13L313 443.6 266.5 523c-3.7 6.3-10.2 10.4-17.5 11-7.4 0.6-14.4-2.4-19.1-8l-45.7-55c-7.9-9.5-6.6-23.6 2.9-31.5s23.6-6.6 31.5 2.9l25.3 30.4 52-88.9c4.2-7.2 12.2-11.7 20.4-11.1 8.3 0.4 15.8 5.4 19.3 13l38.1 82.2 49.2-105.6c3.7-7.9 11.6-12.9 20.3-12.9 8.7 0 16.6 5 20.3 12.9l91.5 196c5.2 11.2 0.4 24.5-10.8 29.8-3.2 1.5-6.4 2.2-9.5 2.2zM614 763.1H132.4c-12.4 0-22.4-10-22.4-22.4s10-22.4 22.4-22.4H614c12.4 0 22.4 10 22.4 22.4 0 12.3-10.1 22.4-22.4 22.4z" fill="#363636" p-id="5282"></path><path d="M793.2 885.3H637.3c-12.4 0-22.4-10-22.4-22.4s10-22.4 22.4-22.4h155.9c45.3 0 82.1-36.8 82.1-82.1V459.7c0-45.3-36.8-82.1-82.1-82.1H637.3c-12.4 0-22.4-10-22.4-22.4s10-22.4 22.4-22.4h155.9c70 0 126.9 56.9 126.9 126.9v298.7c0 70-56.9 126.9-126.9 126.9z" fill="#363636" p-id="5283"></path><path d="M334.3 835.8a34.4 34.4 0 1 0 68.8 0 34.4 34.4 0 1 0-68.8 0Z" fill="#363636" p-id="5284"></path></svg>